<svg viewBox="0 0 24 24" fill="none" xmlns="http://www.w3.org/2000/svg">
<path fill-rule="evenodd" clip-rule="evenodd" d="M24 12C24 18.6168 18.6168 24 12 24C5.3832 24 0 18.6168 0 12C0 5.3832 5.3832 0 12 0C18.6168 0 24 5.3832 24 12ZM22.2 12C22.2 6.3756 17.6244 1.8 12 1.8C6.3756 1.8 1.8 6.3756 1.8 12C1.8 17.6244 6.3756 22.2 12 22.2C17.6244 22.2 22.2 17.6244 22.2 12ZM14.3689 16.8012C14.0185 17.1528 13.4485 17.154 13.0957 16.8036L8.91252 12.6372C8.7762 12.5028 8.68826 12.3285 8.65854 12.1418L8.64732 12C8.64732 11.7612 8.74212 11.5308 8.91252 11.3628L13.0957 7.1976C13.4485 6.846 14.0185 6.8484 14.3689 7.2C14.7193 7.5528 14.7193 8.1228 14.3665 8.4732L10.8217 12L14.3665 15.528C14.7193 15.8784 14.7193 16.4484 14.3689 16.8012Z" />
</svg>
