<svg viewBox="0 0 13 14" fill="none" xmlns="http://www.w3.org/2000/svg">
<path fill-rule="evenodd" clip-rule="evenodd" d="M6.5 0.275879C10.0841 0.275879 13 3.29233 13 7.00002C13 10.7077 10.0841 13.7242 6.5 13.7242C2.9159 13.7242 0 10.7077 0 7.00002C0 3.29233 2.9159 0.275879 6.5 0.275879ZM6.5 1.2845C3.45345 1.2845 0.975 3.84841 0.975 7.00002C0.975 10.1516 3.45345 12.7155 6.5 12.7155C9.54655 12.7155 12.025 10.1516 12.025 7.00002C12.025 3.84841 9.54655 1.2845 6.5 1.2845ZM9.10065 5.6726C9.2911 5.86895 9.29175 6.18835 9.10195 6.38604L6.84515 8.73007C6.77235 8.80646 6.67792 8.85573 6.57683 8.87239L6.5 8.87867C6.37065 8.87867 6.24585 8.82555 6.15485 8.73007L3.8987 6.38604C3.70825 6.18835 3.70955 5.86895 3.9 5.6726C4.0911 5.47626 4.39985 5.47626 4.58965 5.67395L6.5 7.66026L8.411 5.67395C8.6008 5.47626 8.90955 5.47626 9.10065 5.6726Z" />
</svg>
