<svg viewBox="0 0 17 17" fill="none" xmlns="http://www.w3.org/2000/svg">
<path d="M2.61539 4.78124H1.30769C0.585195 4.78124 0 5.25723 0 5.84375V15.9375C0 16.5245 0.585195 17 1.30769 17H2.61539C3.33789 17 3.92308 16.5245 3.92308 15.9375V5.84375C3.92308 5.25672 3.33789 4.78124 2.61539 4.78124ZM9.15383 0H7.84614C7.12367 0 6.53847 0.47547 6.53847 1.0625V15.9375C6.53847 16.5246 7.12367 17 7.84617 17H9.15386C9.87639 17 10.4616 16.5246 10.4616 15.9375V1.0625C10.4615 0.47547 9.87636 0 9.15383 0ZM15.6923 8.49999H14.3846C13.6621 8.49999 13.0769 8.97546 13.0769 9.56249V15.9375C13.0769 16.5245 13.6621 17 14.3846 17H15.6923C16.4148 17 17 16.5245 17 15.9375V9.56249C17 8.97548 16.4148 8.49999 15.6923 8.49999Z" />
</svg>
