<svg viewBox="0 0 30 29" fill="none" xmlns="http://www.w3.org/2000/svg">
<path d="M15 0C12.0333 0 9.13319 0.85041 6.66645 2.44369C4.19972 4.03697 2.27713 6.30156 1.14181 8.95109C0.00649932 11.6006 -0.290551 14.5161 0.288227 17.3288C0.867006 20.1415 2.29562 22.7252 4.3934 24.753C6.49119 26.7809 9.16393 28.1619 12.0736 28.7214C14.9834 29.2809 17.9994 28.9937 20.7403 27.8962C23.4811 26.7988 25.8238 24.9403 27.472 22.5558C29.1203 20.1713 30 17.3678 30 14.5C29.9953 10.6558 28.4134 6.97025 25.6014 4.25196C22.7894 1.53367 18.9768 0.00453517 15 0ZM15 26.3636C12.5727 26.3636 10.1999 25.6678 8.18164 24.3643C6.1634 23.0607 4.59038 21.2078 3.66148 19.04C2.73259 16.8722 2.48955 14.4868 2.9631 12.1855C3.43664 9.8842 4.6055 7.7703 6.32188 6.11114C8.03825 4.45198 10.225 3.32208 12.6057 2.86432C14.9864 2.40656 17.454 2.6415 19.6966 3.53943C21.9391 4.43736 23.8559 5.95795 25.2044 7.90892C26.5529 9.85988 27.2727 12.1536 27.2727 14.5C27.2688 17.6453 25.9745 20.6606 23.6737 22.8846C21.373 25.1086 18.2537 26.3598 15 26.3636ZM22.8232 10.3135C22.9443 10.441 23.0381 10.5904 23.0995 10.7531C23.1608 10.9157 23.1884 11.0884 23.1807 11.2614C23.173 11.4344 23.1301 11.6042 23.0545 11.7611C22.9788 11.918 22.872 12.059 22.74 12.176L14.5582 19.426C14.2991 19.6557 13.9584 19.7797 13.607 19.7723C13.2556 19.765 12.9208 19.6268 12.6723 19.3865L8.58137 15.432C8.32568 15.1846 8.1821 14.8492 8.18223 14.4995C8.18236 14.1499 8.32618 13.8146 8.58205 13.5674C8.83792 13.3202 9.18489 13.1814 9.54662 13.1816C9.90835 13.1817 10.2552 13.3207 10.5109 13.568L13.6786 16.6302L20.8977 10.233C21.1642 9.9971 21.5166 9.87304 21.8777 9.88811C22.2387 9.90319 22.5788 10.0562 22.8232 10.3135Z" />
</svg>
