<svg viewBox="0 0 7 7" fill="none" xmlns="http://www.w3.org/2000/svg">
<path fill-rule="evenodd" clip-rule="evenodd" d="M4.33194 3.50002L6.8277 1.00426C7.05744 0.774518 7.05744 0.402041 6.8277 0.172336C6.59796 -0.0574016 6.22552 -0.0574016 5.99578 0.172336L3.49999 2.66813L1.0042 0.172303C0.77446 -0.0574344 0.402016 -0.0574344 0.172278 0.172303C-0.0574262 0.402041 -0.0574262 0.774519 0.172278 1.00422L2.66807 3.49998L0.172278 5.99578C-0.0574262 6.22551 -0.0574262 6.59799 0.172278 6.8277C0.402016 7.05743 0.77446 7.05743 1.0042 6.8277L3.49999 4.3319L5.99578 6.8277C6.22548 7.05743 6.59796 7.05743 6.8277 6.8277C7.05744 6.59796 7.05744 6.22551 6.8277 5.99578L4.33194 3.50002Z" />
</svg>
