<svg  viewBox="0 0 27 27" fill="none" xmlns="http://www.w3.org/2000/svg">
<path d="M13.5 1C4.12568 1 1 4.12568 1 13.5C1 22.8743 4.12568 26 13.5 26C22.8743 26 26 22.8743 26 13.5"  stroke-width="2" stroke-linecap="round" stroke-linejoin="round"/>
<path fill-rule="evenodd" clip-rule="evenodd" d="M23.6734 3.09967C22.3315 1.91184 20.2815 2.03616 19.0936 3.37805C19.0936 3.37805 13.1896 10.047 11.1423 12.3618C9.09229 14.6753 10.595 17.8713 10.595 17.8713C10.595 17.8713 13.9788 18.9429 15.9977 16.6618C18.018 14.3808 23.9518 7.6794 23.9518 7.6794C25.1396 6.33751 25.0139 4.28751 23.6734 3.09967Z"  stroke-width="2" stroke-linecap="round" stroke-linejoin="round"/>
<path d="M17.5659 5.1225L22.424 9.42385"  stroke-width="2" stroke-linecap="round" stroke-linejoin="round"/>
</svg>
