<svg viewBox="0 0 15 15" fill="none" xmlns="http://www.w3.org/2000/svg">
<path fill-rule="evenodd" clip-rule="evenodd" d="M14.4231 13.8119C14.7415 13.8119 15 14.078 15 14.4059C15 14.7338 14.7415 14.9999 14.4231 14.9999H8.844C8.52554 14.9999 8.26709 14.7338 8.26709 14.4059C8.26709 14.078 8.52554 13.8119 8.844 13.8119H14.4231ZM10.8584 0.517678C10.8969 0.548566 12.1838 1.57815 12.1838 1.57815C12.6514 1.86485 13.0168 2.37727 13.1553 2.98393C13.293 3.58426 13.193 4.2036 12.8722 4.7271C12.8701 4.7306 12.8679 4.73404 12.8605 4.74431L12.8547 4.75224C12.8027 4.82289 12.5763 5.11755 11.434 6.59112C11.4234 6.61043 11.4114 6.62852 11.3982 6.64609C11.379 6.672 11.358 6.69582 11.3356 6.7175C11.2577 6.81851 11.1754 6.92464 11.0889 7.03622L10.9136 7.26231C10.5518 7.72877 10.1227 8.2819 9.61366 8.93797L9.3524 9.27466C8.3696 10.5412 7.11093 12.1628 5.49854 14.2397C5.14547 14.6927 4.61625 14.9564 4.0478 14.9636L1.24864 15H1.24095C0.974033 15 0.741731 14.8115 0.679425 14.543L0.0494406 11.794C-0.0805563 11.2246 0.0486713 10.6369 0.403278 10.1807L7.64925 0.849522C7.65233 0.846354 7.65464 0.842394 7.65772 0.839226C8.45231 -0.138881 9.8892 -0.283023 10.8584 0.517678ZM6.84137 3.79125L1.30403 10.9228C1.17249 11.0923 1.12403 11.3109 1.17249 11.5208L1.69632 13.8057L4.03396 13.7756C4.25626 13.7732 4.46164 13.671 4.59779 13.4968C5.29892 12.5936 6.1801 11.4584 7.08608 10.2911L7.40661 9.87814L7.72769 9.46444C8.57734 8.36966 9.41674 7.28794 10.1191 6.38254L6.84137 3.79125ZM8.54616 1.59716L7.56212 2.86304L10.8396 5.45358C11.4704 4.64003 11.8854 4.1042 11.9238 4.05312C12.0499 3.84245 12.0991 3.54466 12.033 3.25796C11.9653 2.96413 11.7876 2.71466 11.5315 2.55547C11.4769 2.51666 10.1807 1.48074 10.1407 1.44827C9.65305 1.04594 8.94153 1.11563 8.54616 1.59716Z" />
</svg>
