<svg  viewBox="0 0 25 27" fill="none" xmlns="http://www.w3.org/2000/svg">
<path fill-rule="evenodd" clip-rule="evenodd" d="M12.5846 0.0590357C11.1238 -0.169022 9.64013 0.270407 8.52128 1.26051C7.40243 2.25062 6.75787 3.69545 6.75787 5.21398C6.75787 9.92116 6.75787 17.0299 6.75787 21.7857C6.75787 23.3321 7.42405 24.7992 8.57803 25.7893C9.73202 26.7808 11.2535 27.1924 12.7318 26.9157C14.9452 26.5027 17.5599 26.0132 19.7301 25.6071C22.7812 25.0356 25 22.3003 25 19.1088C25 15.7074 25 11.1073 25 7.67395C25 4.40883 22.6812 1.63319 19.5436 1.1437C17.3653 0.804396 14.7696 0.399732 12.5846 0.0590357ZM12.2805 2.12129C14.4655 2.46199 17.0627 2.86665 19.2396 3.20596C21.3867 3.54109 22.9731 5.43926 22.9731 7.67395C22.9731 11.1073 22.9731 15.7074 22.9731 19.1088C22.9731 21.2921 21.4556 23.1638 19.3666 23.5546C17.1978 23.9606 14.5831 24.4501 12.3683 24.8645C11.4819 25.03 10.5698 24.7825 9.8766 24.1873C9.18475 23.5935 8.78478 22.7133 8.78478 21.7857C8.78478 17.0299 8.78478 9.92116 8.78478 5.21398C8.78478 4.30314 9.17124 3.4368 9.84282 2.84162C10.5144 2.24784 11.4049 1.98501 12.2805 2.12129Z" />
<path d="M11.8226 14.9661C12.5689 14.9661 13.1739 14.3435 13.1739 13.5755C13.1739 12.8075 12.5689 12.1849 11.8226 12.1849C11.0764 12.1849 10.4714 12.8075 10.4714 13.5755C10.4714 14.3435 11.0764 14.9661 11.8226 14.9661Z" />
<path fill-rule="evenodd" clip-rule="evenodd" d="M5.06591 25.0477C2.26878 25.0463 0 22.7114 0 19.8329C0 16.1965 0 10.9498 0 7.31475C0 5.93249 0.533752 4.60586 1.48369 3.62827C2.43364 2.65068 3.7214 2.10278 5.06456 2.10278H5.06726C5.62669 2.10278 6.08072 2.57002 6.08072 3.14573C6.08072 3.72005 5.62669 4.18729 5.06726 4.18868H5.06456C4.2592 4.18868 3.48628 4.51686 2.91604 5.10369C2.34716 5.69053 2.02691 6.48456 2.02691 7.31475C2.02691 10.9498 2.02691 16.1965 2.02691 19.8329C2.02691 21.56 3.38763 22.9618 5.06726 22.9618C5.62669 22.9618 6.08072 23.429 6.08072 24.0047C6.08072 24.579 5.62669 25.0463 5.06726 25.0477H5.06591Z" />
</svg>
