<svg viewBox="0 0 17 16" fill="none" xmlns="http://www.w3.org/2000/svg">
<path d="M5.33796 0.000130242C5.87345 0.0162644 6.39195 0.108894 6.89429 0.278155H6.94444C6.97844 0.294155 7.00394 0.311839 7.02094 0.327838C7.20879 0.387627 7.38644 0.454994 7.55643 0.547624L7.87943 0.69078C8.00693 0.758147 8.15993 0.883618 8.24493 0.934986C8.32993 0.984669 8.42343 1.03604 8.49992 1.09414C9.44426 0.379206 10.5909 -0.00815621 11.7724 0.000130242C12.3087 0.000130242 12.8442 0.0752108 13.3534 0.244471C16.4907 1.25498 17.6212 4.66545 16.6768 7.64645C16.1413 9.1698 15.2659 10.5601 14.1192 11.6961C12.4779 13.2708 10.6768 14.6687 8.73792 15.8728L8.52542 16L8.30443 15.8644C6.3588 14.6687 4.54747 13.2708 2.89083 11.6877C1.75185 10.5517 0.875505 9.1698 0.331511 7.64645C-0.628979 4.66545 0.501509 1.25498 3.67283 0.226787C3.91932 0.142578 4.17347 0.0836317 4.42847 0.0507902H4.53047C4.76931 0.0162644 5.00646 0.000130242 5.24446 0.000130242H5.33796ZM12.9114 2.66127C12.5629 2.54254 12.1804 2.72864 12.0529 3.08232C11.9339 3.436 12.1209 3.82336 12.4779 3.94883C13.0227 4.15093 13.3874 4.68229 13.3874 5.27091V5.29702C13.3712 5.48986 13.4299 5.67596 13.5489 5.81912C13.6679 5.96227 13.8464 6.04564 14.0334 6.06332C14.3819 6.05406 14.6794 5.77701 14.7049 5.42249V5.32228C14.7304 4.14251 14.0087 3.0739 12.9114 2.66127Z" />
</svg>
