<svg viewBox="0 0 19 18" fill="none" xmlns="http://www.w3.org/2000/svg">
<path fill-rule="evenodd" clip-rule="evenodd" d="M9.49867 0.959131C11.0077 0.0102623 13.0123 -0.251877 14.7441 0.300092C18.5111 1.50833 19.6804 5.59271 18.6345 8.84268C17.0206 13.947 10.1279 17.7545 9.83556 17.9142C9.73162 17.9714 9.61654 18 9.50146 18C9.38638 18 9.27223 17.9723 9.16828 17.916C8.8778 17.7582 2.0352 14.007 0.367472 8.8436C0.366544 8.8436 0.366544 8.84268 0.366544 8.84268C-0.68031 5.59179 0.485336 1.50648 4.24863 0.300092C6.01566 -0.268491 7.94139 -0.0183514 9.49867 0.959131ZM4.67554 1.61817C1.63056 2.59473 0.865842 5.85208 1.69274 8.42086C2.99389 12.4471 8.13442 15.7026 9.50053 16.5084C10.8713 15.6943 16.0489 12.4028 17.3083 8.42455C18.1352 5.853 17.3677 2.59565 14.3181 1.61817C12.8406 1.1465 11.1172 1.43357 9.92744 2.34921C9.67872 2.53935 9.33348 2.54304 9.0829 2.35474C7.82259 1.41234 6.17621 1.13635 4.67554 1.61817ZM13.4272 3.4512C14.6921 3.85826 15.5784 4.97235 15.687 6.2895C15.7176 6.67071 15.4327 7.00485 15.0494 7.03531C15.0299 7.03715 15.0114 7.03807 14.9919 7.03807C14.6327 7.03807 14.3283 6.76394 14.2986 6.40211C14.2374 5.64339 13.7269 5.00281 13.0003 4.76928C12.6337 4.65113 12.4332 4.2607 12.5511 3.89795C12.6708 3.53428 13.0596 3.33675 13.4272 3.4512Z" />
</svg>
