<svg  viewBox="0 0 40 40" fill="none" xmlns="http://www.w3.org/2000/svg">
<path d="M27.2557 3.33398C32.884 3.33398 36.6657 7.27065 36.6657 13.1473V26.8373C36.6657 27.089 36.6207 27.314 36.6073 27.5573C36.599 27.699 36.6007 27.8407 36.589 27.9823C36.5823 28.0457 36.564 28.104 36.5573 28.1673C36.5023 28.6906 36.4173 29.1907 36.299 29.6757C36.269 29.8057 36.234 29.9307 36.199 30.0573C36.0657 30.5273 35.909 30.9756 35.7207 31.404C35.6657 31.524 35.6057 31.639 35.549 31.7573C35.3457 32.1657 35.1257 32.5573 34.8707 32.9207L34.624 33.2407C34.359 33.584 34.0823 33.9123 33.769 34.2106C33.6673 34.3073 33.5523 34.3906 33.4457 34.4823C33.124 34.759 32.7957 35.024 32.434 35.2507C32.304 35.3323 32.1607 35.3923 32.0273 35.4656C31.659 35.669 31.2873 35.8673 30.8823 36.0206C30.7157 36.084 30.5307 36.1173 30.3573 36.1723C29.959 36.2957 29.5657 36.424 29.1373 36.4973C29.0296 36.5162 28.9186 36.5295 28.806 36.54L28.1223 36.589C27.8323 36.6106 27.5573 36.6673 27.2557 36.6673H12.729C12.1023 36.6673 11.504 36.604 10.9257 36.509C10.904 36.5056 10.884 36.5023 10.864 36.499C8.609 36.1106 6.73734 35.0223 5.42567 33.3806C5.41067 33.3806 5.41067 33.364 5.39567 33.349C4.07734 31.689 3.33234 29.4573 3.33234 26.8373V13.1473C3.33234 7.27065 7.11734 3.33398 12.729 3.33398H27.2557ZM27.2557 5.65898H12.729C8.434 5.65898 5.659 8.60398 5.659 13.1473V26.8373C5.659 28.1123 5.89567 29.2507 6.30067 30.2357C6.35234 30.174 9.58067 26.2373 9.59567 26.224C10.749 24.9073 12.914 22.944 15.7557 24.1323C16.439 24.4157 17.039 24.814 17.589 25.164C18.544 25.8023 19.1057 26.1023 19.689 26.0523C19.9307 26.019 20.1573 25.9473 20.3723 25.814C21.3023 25.2407 23.9307 21.4073 24.089 21.199C25.9057 18.8323 28.7057 18.199 31.039 19.599C31.1957 19.6923 31.8353 20.1311 32.5286 20.6252L33.052 21.0017C33.572 21.3795 34.0619 21.7477 34.3407 21.984V13.1473C34.3407 8.60398 31.5657 5.65898 27.2557 5.65898ZM14.1311 9.99998C15.2939 9.99998 16.3469 10.489 17.1011 11.269C17.8585 12.0218 18.3333 13.0592 18.3333 14.1916C18.3333 16.4498 16.4438 18.3333 14.1747 18.3333C12.1802 18.3333 10.4797 16.8761 10.0985 14.9894C10.0355 14.7063 10 14.4152 10 14.1144C10 11.84 11.8475 9.99998 14.1311 9.99998Z" />
</svg>
