<svg viewBox="0 0 15 15" fill="none" xmlns="http://www.w3.org/2000/svg">
<path d="M3 15C2.20435 15 1.44129 14.7366 0.87868 14.2678C0.316071 13.7989 0 13.163 0 12.5V2.5C0 1.83696 0.316071 1.20107 0.87868 0.732233C1.44129 0.263392 2.20435 0 3 0C3.79492 0.00353034 4.55666 0.265969 5.1225 0.73125C5.68084 1.20278 5.99576 1.83757 6 2.5V12.5C6 13.163 5.68393 13.7989 5.12132 14.2678C4.55871 14.7366 3.79565 15 3 15ZM3 1.25C2.60218 1.25 2.22064 1.3817 1.93934 1.61612C1.65804 1.85054 1.5 2.16848 1.5 2.5V12.5C1.5 12.8315 1.65804 13.1495 1.93934 13.3839C2.22064 13.6183 2.60218 13.75 3 13.75C3.39782 13.75 3.77936 13.6183 4.06066 13.3839C4.34196 13.1495 4.5 12.8315 4.5 12.5V2.5C4.5 2.16848 4.34196 1.85054 4.06066 1.61612C3.77936 1.3817 3.39782 1.25 3 1.25Z" />
<path d="M12 15C11.2044 15 10.4413 14.7366 9.87868 14.2678C9.31607 13.7989 9 13.163 9 12.5V2.5C9 1.83696 9.31607 1.20107 9.87868 0.732233C10.4413 0.263392 11.2044 0 12 0C12.7956 0 13.5587 0.263392 14.1213 0.732233C14.6839 1.20107 15 1.83696 15 2.5V12.5C15 13.163 14.6839 13.7989 14.1213 14.2678C13.5587 14.7366 12.7956 15 12 15ZM12 1.25C11.6022 1.25 11.2206 1.3817 10.9393 1.61612C10.658 1.85054 10.5 2.16848 10.5 2.5V12.5C10.5 12.8315 10.658 13.1495 10.9393 13.3839C11.2206 13.6183 11.6022 13.75 12 13.75C12.3978 13.75 12.7794 13.6183 13.0607 13.3839C13.342 13.1495 13.5 12.8315 13.5 12.5V2.5C13.5 2.16848 13.342 1.85054 13.0607 1.61612C12.7794 1.3817 12.3978 1.25 12 1.25Z" />
</svg>
