<svg viewBox="0 0 20 20" fill="none" xmlns="http://www.w3.org/2000/svg">
<path fill-rule="evenodd" clip-rule="evenodd" d="M10 0C15.5141 0 20 4.48585 20 10C20 15.5141 15.5141 20 10 20C4.48585 20 0 15.5141 0 10C0 4.48585 4.48585 0 10 0ZM10 1.46341C5.29268 1.46341 1.46341 5.29268 1.46341 10C1.46341 14.7073 5.29268 18.5366 10 18.5366C14.7073 18.5366 18.5366 14.7073 18.5366 10C18.5366 5.29268 14.7073 1.46341 10 1.46341ZM9.59102 6.59649C10.0983 6.8082 13.6583 8.63161 13.6583 9.99551C13.6583 11.2736 10.4544 13.0609 9.6359 13.4023C9.31688 13.535 8.95298 13.6599 8.61249 13.6599C8.34907 13.6599 8.09932 13.5848 7.89541 13.3819C7.73834 13.2267 7.31883 12.8121 7.31688 10.0814C7.3159 7.18185 7.752 6.75063 7.89541 6.60722C8.40566 6.10185 9.23688 6.4482 9.59102 6.59649ZM8.91102 7.88917C8.73834 8.86576 8.73542 11.1984 8.9081 12.1253C9.76468 11.8228 11.6203 10.6033 12.1198 9.99942C11.6222 9.41307 9.79005 8.21893 8.91102 7.88917Z" />
</svg>
