<svg viewBox="0 0 15 15" fill="none" xmlns="http://www.w3.org/2000/svg">
<path d="M15 13.8593H7.5V15H15V13.8593Z" />
<path d="M15 10.0568H7.5V11.1976H15V10.0568Z" />
<path d="M15 6.25446H7.5V7.39518H15V6.25446Z" />
<path d="M15 2.45203H9.75V3.59275H15V2.45203Z" />
<path d="M8.9375 2.98671L4.725 0V2.45199H4.53859C3.30572 2.45199 2.15344 3.12057 1.29375 4.33455C0.459375 5.51292 0 7.07251 0 8.726C0 10.3795 0.459375 11.9391 1.29375 13.1174C2.15344 14.3314 3.30572 15 4.53847 15H6.25V13.8593H4.53847C2.5875 13.8593 1 11.5564 1 8.726C1 5.89557 2.5875 3.59272 4.53847 3.59272H4.725V6.06054L8.9375 2.98671ZM5.725 2.05217L7.0625 3.00065L5.725 3.97672V2.05217Z" />
</svg>
