<svg viewBox="0 0 21 20" fill="none" xmlns="http://www.w3.org/2000/svg">
<path fill-rule="evenodd" clip-rule="evenodd" d="M0 9.352C0 8.60945 0.297959 7.88764 0.815839 7.37014C1.33676 6.85368 2.05125 6.56848 2.77588 6.59026C2.93905 6.58819 3.12755 6.53322 3.29275 6.43366C3.56638 6.26877 3.75894 6.00846 3.83799 5.69941C3.91299 5.39036 3.87245 5.0668 3.71333 4.79197C2.97249 3.46451 3.41639 1.77511 4.70349 1.01701L5.79702 0.370911C5.82641 0.354317 5.85478 0.339798 5.88417 0.327353C7.15202 -0.359192 8.74823 0.0991955 9.47691 1.3748C9.58129 1.56044 9.72723 1.71081 9.90358 1.81452C10.1762 1.97527 10.5005 2.01986 10.7985 1.93897C11.1025 1.856 11.3549 1.65792 11.5109 1.37895C11.8646 0.749443 12.4605 0.279648 13.1487 0.091938C13.8358 -0.0957737 14.5817 0.00689697 15.1969 0.372986L16.3178 1.0616C17.5907 1.81971 18.0316 3.50911 17.2897 4.82308C17.1914 4.99835 17.1377 5.20058 17.1326 5.40177V5.40799C17.1326 5.70771 17.2573 6.01572 17.4752 6.23973C17.6971 6.46685 17.9931 6.5913 18.3072 6.58922C19.796 6.59648 21 7.83579 21 9.352V10.6515C21 12.1749 19.7899 13.4142 18.3011 13.4142C18.1177 13.4163 17.9272 13.4702 17.762 13.5708C17.4843 13.7336 17.2857 13.9971 17.2066 14.3009C17.1276 14.6027 17.1711 14.9335 17.3252 15.2053C17.6799 15.8565 17.766 16.6229 17.5735 17.324C17.3799 18.024 16.9097 18.6287 16.2864 18.9833L15.1949 19.6315C13.9098 20.3896 12.2629 19.9385 11.5211 18.6255C11.3113 18.2532 10.9201 18.022 10.5005 18.022C10.0809 18.022 9.68872 18.2532 9.47894 18.6255C8.73302 19.9395 7.08209 20.3896 5.79702 19.6325L4.66903 18.9294C3.39815 18.1817 2.9502 16.4912 3.69002 15.1731C3.79441 14.9937 3.84711 14.7987 3.84914 14.6006C3.84914 13.9545 3.32822 13.4142 2.68771 13.4039C1.98132 13.408 1.30332 13.1228 0.791516 12.6032C0.28073 12.0816 0 11.3888 0 10.6515L0 9.352ZM1.5202 9.352V10.6515C1.5202 10.9729 1.64283 11.2737 1.86376 11.5008C2.08571 11.7269 2.38063 11.8503 2.6948 11.8482C4.17649 11.87 5.36934 13.1093 5.36934 14.61C5.36427 15.0912 5.23758 15.5548 5.00246 15.9571C4.68829 16.5223 4.88186 17.2607 5.44433 17.5916L6.57232 18.2937C7.11756 18.6152 7.83814 18.4181 8.16346 17.8457C8.64384 16.9963 9.53974 16.4663 10.5005 16.4663C11.4613 16.4663 12.3562 16.9963 12.8376 17.8477C13.1598 18.4171 13.8764 18.6141 14.4338 18.2843L15.5364 17.6299C15.8212 17.4682 16.0269 17.2037 16.111 16.8978C16.1941 16.5929 16.1587 16.2569 16.0067 15.9768C15.7705 15.5651 15.6479 15.086 15.6479 14.6048C15.6479 14.3673 15.6773 14.1298 15.7381 13.8975C15.9225 13.1964 16.3806 12.5877 16.9958 12.2268C17.3819 11.9924 17.8329 11.8628 18.293 11.8586C18.9518 11.8586 19.4798 11.3173 19.4798 10.6515V9.352C19.4798 8.68931 18.9548 8.14795 18.3072 8.14484C17.5917 8.14899 16.9117 7.86275 16.3999 7.33903C15.8952 6.82257 15.5922 6.10076 15.6124 5.37896C15.6236 4.90605 15.7482 4.45077 15.9712 4.04942C16.2945 3.47177 16.1019 2.73441 15.5445 2.40047L14.4226 1.71185C14.1642 1.55836 13.8399 1.51377 13.5409 1.5957C13.2419 1.67659 12.9825 1.87986 12.8294 2.15364C12.4687 2.79456 11.8869 3.25191 11.1897 3.4417C10.5056 3.62941 9.75865 3.52674 9.14348 3.16065C8.73809 2.92212 8.39655 2.57262 8.16143 2.15364C7.84016 1.59155 7.12162 1.3945 6.56218 1.72118C6.53989 1.73467 6.51658 1.74711 6.49225 1.75748L5.46257 2.36521C4.9001 2.69604 4.70653 3.43236 5.0278 4.01001C5.38859 4.63433 5.49196 5.37688 5.30853 6.09039C5.12813 6.80286 4.68727 7.40022 4.06501 7.77253C3.67584 8.01106 3.22282 8.14069 2.76169 8.14484C2.41509 8.13551 2.10395 8.25996 1.87592 8.48604C1.64891 8.71108 1.5202 9.02739 1.5202 9.352ZM7.068 9.99716C7.068 8.06094 8.60847 6.48562 10.5006 6.48562C12.3927 6.48562 13.9312 8.06094 13.9312 9.99716C13.9312 11.9334 12.3927 13.5087 10.5006 13.5087C8.60847 13.5087 7.068 11.9334 7.068 9.99716ZM8.5882 9.99716C8.5882 11.0757 9.4466 11.9531 10.5006 11.9531C11.5546 11.9531 12.411 11.0757 12.411 9.99716C12.411 8.9186 11.5546 8.04124 10.5006 8.04124C9.4466 8.04124 8.5882 8.9186 8.5882 9.99716Z" />
</svg>
