<svg viewBox="0 0 24 22" fill="none" xmlns="http://www.w3.org/2000/svg">
<path d="M13.5989 2.05912L15.2777 5.35418C15.5176 5.90335 16.0772 6.29561 16.7167 6.37406L20.3942 6.92325C21.9131 7.15861 22.5527 8.96306 21.4335 10.0614L18.7953 12.5719C18.3156 12.9641 18.1557 13.5918 18.2357 14.2194L18.8752 17.8283C19.1151 19.3189 17.5162 20.4957 16.1571 19.7897L12.8794 18.0637C12.3198 17.7498 11.6802 17.7498 11.1206 18.0637L7.84288 19.7897C6.48383 20.4957 4.88495 19.3189 5.12478 17.8283L5.76432 14.2194C5.84426 13.5918 5.68439 13.0426 5.20472 12.5719L2.56654 10.0614C1.44732 8.96306 2.08689 7.15861 3.60583 6.92325L7.28326 6.37406C7.92282 6.29561 8.4025 5.90335 8.72228 5.35418L10.4011 2.05912C10.9607 0.646959 12.8794 0.646959 13.5989 2.05912Z" stroke-width="2" stroke-miterlimit="10"/>
</svg>
